<mxfile host="Electron" modified="2025-03-26T07:53:11.637Z" agent="Mozilla/5.0 (Windows NT 10.0; Win64; x64) AppleWebKit/537.36 (KHTML, like Gecko) draw.io/24.6.4 Chrome/124.0.6367.207 Electron/30.0.6 Safari/537.36" etag="jo9o8TxcbUk_RSegjj63" version="24.6.4" type="device" pages="2">
  <diagram id="8HhPcvDA_TqMWbkV9ST8" name="9 SysML Diagrams ">
    <mxGraphModel dx="1834" dy="1236" grid="0" gridSize="10" guides="1" tooltips="1" connect="1" arrows="1" fold="1" page="0" pageScale="1" pageWidth="850" pageHeight="1100" math="0" shadow="0">
      <root>
        <mxCell id="0" />
        <mxCell id="1" parent="0" />
        <mxCell id="cQWdsCVGP3A7fm96pkYx-13" style="edgeStyle=orthogonalEdgeStyle;rounded=0;orthogonalLoop=1;jettySize=auto;html=1;exitX=0.5;exitY=1;exitDx=0;exitDy=0;startArrow=block;startFill=0;endArrow=none;endFill=0;" parent="1" source="cQWdsCVGP3A7fm96pkYx-1" target="cQWdsCVGP3A7fm96pkYx-3" edge="1">
          <mxGeometry relative="1" as="geometry" />
        </mxCell>
        <mxCell id="cQWdsCVGP3A7fm96pkYx-14" style="edgeStyle=orthogonalEdgeStyle;rounded=0;orthogonalLoop=1;jettySize=auto;html=1;exitX=0.5;exitY=1;exitDx=0;exitDy=0;entryX=0.5;entryY=0;entryDx=0;entryDy=0;startArrow=block;startFill=0;endArrow=none;endFill=0;" parent="1" source="cQWdsCVGP3A7fm96pkYx-1" target="cQWdsCVGP3A7fm96pkYx-4" edge="1">
          <mxGeometry relative="1" as="geometry" />
        </mxCell>
        <mxCell id="cQWdsCVGP3A7fm96pkYx-15" style="edgeStyle=orthogonalEdgeStyle;rounded=0;orthogonalLoop=1;jettySize=auto;html=1;exitX=0.5;exitY=1;exitDx=0;exitDy=0;entryX=0.5;entryY=0;entryDx=0;entryDy=0;startArrow=block;startFill=0;endArrow=none;endFill=0;" parent="1" source="cQWdsCVGP3A7fm96pkYx-1" target="cQWdsCVGP3A7fm96pkYx-2" edge="1">
          <mxGeometry relative="1" as="geometry" />
        </mxCell>
        <mxCell id="cQWdsCVGP3A7fm96pkYx-1" value="&lt;p&gt;&amp;lt;&amp;lt;block&amp;gt;&amp;gt;&lt;br&gt;&lt;b&gt;SysML&lt;/b&gt;&lt;/p&gt;" style="shape=rect;html=1;overflow=fill;whiteSpace=wrap;align=center;" parent="1" vertex="1">
          <mxGeometry x="176" y="-50" width="119" height="60" as="geometry" />
        </mxCell>
        <mxCell id="cQWdsCVGP3A7fm96pkYx-2" value="&lt;p&gt;&amp;lt;&amp;lt;block&amp;gt;&amp;gt;&lt;br&gt;&lt;b&gt;Requirement&lt;/b&gt;&lt;b style=&quot;background-color: initial;&quot;&gt;&amp;nbsp;Diagram&lt;/b&gt;&lt;/p&gt;" style="shape=rect;html=1;overflow=fill;whiteSpace=wrap;align=center;" parent="1" vertex="1">
          <mxGeometry x="170" y="91" width="131" height="60" as="geometry" />
        </mxCell>
        <mxCell id="cQWdsCVGP3A7fm96pkYx-16" style="edgeStyle=orthogonalEdgeStyle;rounded=0;orthogonalLoop=1;jettySize=auto;html=1;exitX=0.5;exitY=1;exitDx=0;exitDy=0;entryX=0.5;entryY=0;entryDx=0;entryDy=0;startArrow=block;startFill=0;endArrow=none;endFill=0;" parent="1" source="cQWdsCVGP3A7fm96pkYx-3" target="cQWdsCVGP3A7fm96pkYx-9" edge="1">
          <mxGeometry relative="1" as="geometry" />
        </mxCell>
        <mxCell id="cQWdsCVGP3A7fm96pkYx-17" style="edgeStyle=orthogonalEdgeStyle;rounded=0;orthogonalLoop=1;jettySize=auto;html=1;exitX=0.5;exitY=1;exitDx=0;exitDy=0;entryX=0.5;entryY=0;entryDx=0;entryDy=0;startArrow=block;startFill=0;endArrow=none;endFill=0;" parent="1" source="cQWdsCVGP3A7fm96pkYx-3" target="cQWdsCVGP3A7fm96pkYx-10" edge="1">
          <mxGeometry relative="1" as="geometry" />
        </mxCell>
        <mxCell id="cQWdsCVGP3A7fm96pkYx-18" style="edgeStyle=orthogonalEdgeStyle;rounded=0;orthogonalLoop=1;jettySize=auto;html=1;exitX=0.5;exitY=1;exitDx=0;exitDy=0;startArrow=block;startFill=0;endArrow=none;endFill=0;" parent="1" source="cQWdsCVGP3A7fm96pkYx-3" target="cQWdsCVGP3A7fm96pkYx-11" edge="1">
          <mxGeometry relative="1" as="geometry" />
        </mxCell>
        <mxCell id="cQWdsCVGP3A7fm96pkYx-19" style="edgeStyle=orthogonalEdgeStyle;rounded=0;orthogonalLoop=1;jettySize=auto;html=1;exitX=0.5;exitY=1;exitDx=0;exitDy=0;startArrow=block;startFill=0;endArrow=none;endFill=0;" parent="1" source="cQWdsCVGP3A7fm96pkYx-3" target="cQWdsCVGP3A7fm96pkYx-12" edge="1">
          <mxGeometry relative="1" as="geometry" />
        </mxCell>
        <mxCell id="cQWdsCVGP3A7fm96pkYx-3" value="&lt;p&gt;&amp;lt;&amp;lt;block&amp;gt;&amp;gt;&lt;br&gt;&lt;b&gt;Behavior Diagram&lt;/b&gt;&lt;/p&gt;" style="shape=rect;html=1;overflow=fill;whiteSpace=wrap;align=center;" parent="1" vertex="1">
          <mxGeometry x="-141" y="91" width="119" height="60" as="geometry" />
        </mxCell>
        <mxCell id="cQWdsCVGP3A7fm96pkYx-20" style="edgeStyle=orthogonalEdgeStyle;rounded=0;orthogonalLoop=1;jettySize=auto;html=1;exitX=0.5;exitY=1;exitDx=0;exitDy=0;entryX=0.5;entryY=0;entryDx=0;entryDy=0;startArrow=block;startFill=0;endArrow=none;endFill=0;" parent="1" source="cQWdsCVGP3A7fm96pkYx-4" target="cQWdsCVGP3A7fm96pkYx-5" edge="1">
          <mxGeometry relative="1" as="geometry" />
        </mxCell>
        <mxCell id="cQWdsCVGP3A7fm96pkYx-21" style="edgeStyle=orthogonalEdgeStyle;rounded=0;orthogonalLoop=1;jettySize=auto;html=1;exitX=0.5;exitY=1;exitDx=0;exitDy=0;startArrow=block;startFill=0;endArrow=none;endFill=0;" parent="1" source="cQWdsCVGP3A7fm96pkYx-4" target="cQWdsCVGP3A7fm96pkYx-6" edge="1">
          <mxGeometry relative="1" as="geometry" />
        </mxCell>
        <mxCell id="cQWdsCVGP3A7fm96pkYx-22" style="edgeStyle=orthogonalEdgeStyle;rounded=0;orthogonalLoop=1;jettySize=auto;html=1;exitX=0.5;exitY=1;exitDx=0;exitDy=0;startArrow=block;startFill=0;endArrow=none;endFill=0;" parent="1" source="cQWdsCVGP3A7fm96pkYx-4" target="cQWdsCVGP3A7fm96pkYx-7" edge="1">
          <mxGeometry relative="1" as="geometry" />
        </mxCell>
        <mxCell id="cQWdsCVGP3A7fm96pkYx-4" value="&lt;p&gt;&amp;lt;&amp;lt;block&amp;gt;&amp;gt;&lt;br&gt;&lt;b&gt;Structural&amp;nbsp;&lt;/b&gt;&lt;b style=&quot;background-color: initial;&quot;&gt;Diagram&lt;/b&gt;&lt;/p&gt;" style="shape=rect;html=1;overflow=fill;whiteSpace=wrap;align=center;" parent="1" vertex="1">
          <mxGeometry x="513" y="91" width="119" height="60" as="geometry" />
        </mxCell>
        <mxCell id="cQWdsCVGP3A7fm96pkYx-5" value="&lt;p&gt;&amp;lt;&amp;lt;block&amp;gt;&amp;gt;&lt;br&gt;&lt;b&gt;Block Definition&lt;/b&gt;&lt;b style=&quot;background-color: initial;&quot;&gt;&amp;nbsp;Diagram&lt;/b&gt;&lt;/p&gt;" style="shape=rect;html=1;overflow=fill;whiteSpace=wrap;align=center;" parent="1" vertex="1">
          <mxGeometry x="372" y="275" width="119" height="60" as="geometry" />
        </mxCell>
        <mxCell id="cQWdsCVGP3A7fm96pkYx-23" style="edgeStyle=orthogonalEdgeStyle;rounded=0;orthogonalLoop=1;jettySize=auto;html=1;exitX=0.5;exitY=1;exitDx=0;exitDy=0;startArrow=block;startFill=0;endArrow=none;endFill=0;" parent="1" source="cQWdsCVGP3A7fm96pkYx-6" target="cQWdsCVGP3A7fm96pkYx-8" edge="1">
          <mxGeometry relative="1" as="geometry" />
        </mxCell>
        <mxCell id="cQWdsCVGP3A7fm96pkYx-6" value="&lt;p&gt;&amp;lt;&amp;lt;block&amp;gt;&amp;gt;&lt;br&gt;&lt;b&gt;Internal Block Definition&lt;/b&gt;&lt;b style=&quot;background-color: initial;&quot;&gt;&amp;nbsp;Diagram&lt;/b&gt;&lt;br&gt;&lt;/p&gt;" style="shape=rect;html=1;overflow=fill;whiteSpace=wrap;align=center;" parent="1" vertex="1">
          <mxGeometry x="513" y="275" width="119" height="60" as="geometry" />
        </mxCell>
        <mxCell id="cQWdsCVGP3A7fm96pkYx-7" value="&lt;p&gt;&amp;lt;&amp;lt;block&amp;gt;&amp;gt;&lt;br&gt;&lt;b&gt;Package Diagram&lt;/b&gt;&lt;/p&gt;" style="shape=rect;html=1;overflow=fill;whiteSpace=wrap;align=center;" parent="1" vertex="1">
          <mxGeometry x="654" y="275" width="119" height="60" as="geometry" />
        </mxCell>
        <mxCell id="cQWdsCVGP3A7fm96pkYx-8" value="&lt;p&gt;&amp;lt;&amp;lt;block&amp;gt;&amp;gt;&lt;br&gt;&lt;b&gt;Parametric Diagram&lt;/b&gt;&lt;/p&gt;" style="shape=rect;html=1;overflow=fill;whiteSpace=wrap;align=center;" parent="1" vertex="1">
          <mxGeometry x="513" y="404" width="119" height="60" as="geometry" />
        </mxCell>
        <mxCell id="cQWdsCVGP3A7fm96pkYx-9" value="&lt;p&gt;&amp;lt;&amp;lt;block&amp;gt;&amp;gt;&lt;br&gt;&lt;b&gt;Activity&lt;/b&gt;&lt;b style=&quot;background-color: initial;&quot;&gt;&amp;nbsp;Diagram&lt;/b&gt;&lt;/p&gt;" style="shape=rect;html=1;overflow=fill;whiteSpace=wrap;align=center;" parent="1" vertex="1">
          <mxGeometry x="-352" y="275" width="119" height="60" as="geometry" />
        </mxCell>
        <mxCell id="cQWdsCVGP3A7fm96pkYx-10" value="&lt;p&gt;&amp;lt;&amp;lt;block&amp;gt;&amp;gt;&lt;br&gt;&lt;b&gt;Sequence&lt;/b&gt;&lt;b style=&quot;background-color: initial;&quot;&gt;&amp;nbsp;Diagram&lt;/b&gt;&lt;/p&gt;" style="shape=rect;html=1;overflow=fill;whiteSpace=wrap;align=center;" parent="1" vertex="1">
          <mxGeometry x="-208" y="275" width="119" height="60" as="geometry" />
        </mxCell>
        <mxCell id="cQWdsCVGP3A7fm96pkYx-11" value="&lt;p&gt;&amp;lt;&amp;lt;block&amp;gt;&amp;gt;&lt;br&gt;&lt;b&gt;State Machine&lt;/b&gt;&lt;b style=&quot;background-color: initial;&quot;&gt;&amp;nbsp;Diagram&lt;/b&gt;&lt;/p&gt;" style="shape=rect;html=1;overflow=fill;whiteSpace=wrap;align=center;" parent="1" vertex="1">
          <mxGeometry x="-68" y="275" width="119" height="60" as="geometry" />
        </mxCell>
        <mxCell id="cQWdsCVGP3A7fm96pkYx-12" value="&lt;p&gt;&amp;lt;&amp;lt;block&amp;gt;&amp;gt;&lt;br&gt;&lt;b&gt;Use Case&lt;/b&gt;&lt;b style=&quot;background-color: initial;&quot;&gt;&amp;nbsp;Diagram&lt;/b&gt;&lt;/p&gt;" style="shape=rect;html=1;overflow=fill;whiteSpace=wrap;align=center;" parent="1" vertex="1">
          <mxGeometry x="87" y="275" width="119" height="60" as="geometry" />
        </mxCell>
      </root>
    </mxGraphModel>
  </diagram>
  <diagram name="bdd" id="qN34PDmW69rHcBVL9G9z">
    <mxGraphModel dx="1434" dy="836" grid="0" gridSize="10" guides="1" tooltips="1" connect="1" arrows="1" fold="1" page="0" pageScale="1" pageWidth="850" pageHeight="1100" math="0" shadow="0">
      <root>
        <mxCell id="0" />
        <mxCell id="1" parent="0" />
        <mxCell id="PHrCoKP36XRDKI00gV4Y-3" value="&lt;p&gt;&amp;lt;&amp;lt;block&amp;gt;&amp;gt;&lt;br&gt;&lt;b&gt;System 1&lt;/b&gt;&lt;/p&gt;" style="shape=rect;html=1;overflow=fill;whiteSpace=wrap;align=center;" parent="1" vertex="1">
          <mxGeometry x="224" y="258" width="144" height="80" as="geometry" />
        </mxCell>
        <mxCell id="PHrCoKP36XRDKI00gV4Y-4" value="&lt;ul&gt;&lt;li&gt;&lt;span style=&quot;color: rgb(34, 34, 34); font-family: ui-sans-serif, system-ui, -system-ui, -apple-system, BlinkMacSystemFont, &amp;quot;Segoe UI&amp;quot;, Roboto, Helvetica, Arial, sans-serif, &amp;quot;Apple Color Emoji&amp;quot;, &amp;quot;Segoe UI Emoji&amp;quot;, &amp;quot;Segoe UI Symbol&amp;quot;;&quot;&gt;&lt;font style=&quot;font-size: 12px;&quot;&gt;Represents a system component, a modular structural unit that encapsulates its contents&lt;/font&gt;&lt;/span&gt;&lt;/li&gt;&lt;li&gt;&lt;font style=&quot;&quot;&gt;&lt;font face=&quot;ui-sans-serif, system-ui, -system-ui, -apple-system, BlinkMacSystemFont, Segoe UI, Roboto, Helvetica, Arial, sans-serif, Apple Color Emoji, Segoe UI Emoji, Segoe UI Symbol&quot; color=&quot;#222222&quot;&gt;Behaviors encapsulated by Blocks include: Operations, Signals, and State Machines&lt;/font&gt;&lt;br&gt;&lt;/font&gt;&lt;/li&gt;&lt;li&gt;&lt;font style=&quot;&quot;&gt;&lt;font face=&quot;ui-sans-serif, system-ui, -system-ui, -apple-system, BlinkMacSystemFont, Segoe UI, Roboto, Helvetica, Arial, sans-serif, Apple Color Emoji, Segoe UI Emoji, Segoe UI Symbol&quot; color=&quot;#222222&quot;&gt;Can specify software, hardware, mechanical, and wetware (persons, organizations, facilities) components&lt;br&gt;&lt;/font&gt;&lt;/font&gt;&lt;/li&gt;&lt;li&gt;&lt;font style=&quot;&quot;&gt;&lt;font face=&quot;ui-sans-serif, system-ui, -system-ui, -apple-system, BlinkMacSystemFont, Segoe UI, Roboto, Helvetica, Arial, sans-serif, Apple Color Emoji, Segoe UI Emoji, Segoe UI Symbol&quot; color=&quot;#222222&quot;&gt;Can be recursively decomposed into Parts, where each Part must also be defined by a Block&lt;br&gt;&lt;/font&gt;&lt;/font&gt;&lt;/li&gt;&lt;/ul&gt;" style="shape=note;whiteSpace=wrap;html=1;backgroundOutline=1;fontColor=#000000;darkOpacity=0.05;fillColor=#FFF9B2;strokeColor=none;fillStyle=solid;direction=west;gradientDirection=north;gradientColor=#FFF2A1;shadow=1;size=20;pointerEvents=1;align=left;verticalAlign=top;" parent="1" vertex="1">
          <mxGeometry x="407" y="264" width="413" height="248" as="geometry" />
        </mxCell>
        <mxCell id="AoZWqw445qcHo4p0TJ_e-1" value="&lt;font face=&quot;ui-sans-serif, system-ui, -system-ui, -apple-system, BlinkMacSystemFont, Segoe UI, Roboto, Helvetica, Arial, sans-serif, Apple Color Emoji, Segoe UI Emoji, Segoe UI Symbol&quot; color=&quot;#222222&quot;&gt;To be updated&lt;/font&gt;" style="shape=note;whiteSpace=wrap;html=1;backgroundOutline=1;fontColor=#000000;darkOpacity=0.05;fillColor=#FFF9B2;strokeColor=none;fillStyle=solid;direction=west;gradientDirection=north;gradientColor=#FFF2A1;shadow=1;size=20;pointerEvents=1;align=left;verticalAlign=top;" vertex="1" parent="1">
          <mxGeometry x="416" y="564" width="136" height="55" as="geometry" />
        </mxCell>
      </root>
    </mxGraphModel>
  </diagram>
</mxfile>
